# xmcd CD database file
#
# Track frame offsets:
#	150
#	13527
#	27595
#	40265
#	59329
#	72218
#	88622
#	102927
#	117421
#	131201
#	147039
#	164297
#	178409
#	194064
#	207370
#	228849
#	248001
#	265275
#	285099
#	304365
#	324152
#
# Disc length: 4588 seconds
#
# Revision: 4
# Processed by: cddbd v1.5.2PL0 Copyright (c) Steve Scherf et al.
# Submitted via: CDex 1.70beta2
#
DISCID=3211ea15
DTITLE=Rod Stewart - The Great American Songbook 2 and More
DYEAR=2003
DGENRE=Jazz
TTITLE0=Rod Stewart - Time After Time
TTITLE1=Rod Stewart - I'm In The Mood For Love
TTITLE2=Rod Stewart - Don't Get Around Much Anymore
TTITLE3=Rod Stewart and Cher - Bewitched, Bothered And Bewildered
TTITLE4=Rod Stewart - 'Till There Was You
TTITLE5=Rod Stewart - Until The Real Thing Comes Along
TTITLE6=Rod Stewart - Where Or When
TTITLE7=Rod Stewart - Smile
TTITLE8=Rod Stewart - My Heart Stood Still
TTITLE9=Rod Stewart - Someone To Watch Over Me
TTITLE10=Rod Stewart and Queen Latifan - As Time Goes By
TTITLE11=Rod Stewart - I Only Have Eyes For You
TTITLE12=Rod Stewart - Crazy She Calls Me
TTITLE13=Rod Stewart - Our Love Is Here To Stay
TTITLE14=Rod Stewart - Your Song (Song for Guy)
TTITLE15=Rod Stewart and Ronnie Wood - Having A Party
TTITLE16=Rod Stewart and Amy Belle - Don't Come Around Here
TTITLE17=Rod Stewart - So Far Away
TTITLE18=Rod Stewart - The Motown Song
TTITLE19=Rod Stewart - Broken Arrow
TTITLE20=Rod Stewart - Lost In You
EXTD=YEAR: 2003
EXTT0=
EXTT1=
EXTT2=
EXTT3=
EXTT4=
EXTT5=
EXTT6=
EXTT7=
EXTT8=
EXTT9=
EXTT10=
EXTT11=
EXTT12=
EXTT13=
EXTT14=
EXTT15=
EXTT16=
EXTT17=
EXTT18=
EXTT19=
EXTT20=
PLAYORDER=
